<svg id="Capa_1" data-name="Capa 1" xmlns="http://www.w3.org/2000/svg" xmlns:xlink="http://www.w3.org/1999/xlink" viewBox="0 0 255.78 208.44"><defs><style>.cls-1{fill:url(#Degradado_sin_nombre_11);}</style><radialGradient id="Degradado_sin_nombre_11" cx="553.5" cy="221.5" r="234.67" gradientUnits="userSpaceOnUse"><stop offset="0" stop-color="#ff3f00"/><stop offset="0.18" stop-color="#f2260c"/><stop offset="0.41" stop-color="#e50a19"/><stop offset="0.54" stop-color="#e0001e"/><stop offset="0.58" stop-color="#cc0228"/><stop offset="0.66" stop-color="#aa0638"/><stop offset="0.74" stop-color="#8f0845"/><stop offset="0.82" stop-color="#7c0a4e"/><stop offset="0.91" stop-color="#710c53"/><stop offset="1" stop-color="#6d0c55"/></radialGradient></defs><title>logo</title><path class="cls-1" d="M477.12,152.56h22.51v86.17q0,17.49-2.63,26.4A56.27,56.27,0,0,1,490.51,280a47.54,47.54,0,0,1-9.47,10.6q-18.6,15.54-48.61,15.54-30.58,0-49.06-15.43A49.89,49.89,0,0,1,373.9,280a54.71,54.71,0,0,1-6.38-14.5Q365,256.88,365,238.51V152.56h22.51v86.17q0,21.41,5,29.77t15.35,13.42Q418.21,287,432.21,287q19.94,0,32.48-10.1A31.37,31.37,0,0,0,474.21,264q2.91-7.38,2.91-25.31Z" transform="translate(-365 -152.56)"/><path class="cls-1" d="M550,247l-1.75-2.08L501,186.24V361H479.3V152.56h20.58l50.44,62.34,50.14-62.34h20.32v151.8H598.94V186.24l-46.67,58.68Z" transform="translate(-365 -152.56)"/></svg>