<?xml version="1.0" encoding="UTF-8" standalone="no"?>
<!DOCTYPE svg PUBLIC "-//W3C//DTD SVG 1.1//EN" "http://www.w3.org/Graphics/SVG/1.1/DTD/svg11.dtd">
<svg width="100%" height="100%" viewBox="0 0 1068 829" version="1.1" xmlns="http://www.w3.org/2000/svg" xmlns:xlink="http://www.w3.org/1999/xlink" xml:space="preserve" xmlns:serif="http://www.serif.com/" style="fill-rule:evenodd;clip-rule:evenodd;stroke-linecap:round;stroke-linejoin:round;stroke-miterlimit:1.5;">
    <g transform="matrix(1,0,0,1,146.860272,-260.418297)">
        <g transform="matrix(0.794698,0.607004,-0.607004,0.794698,591.123468,-281.969211)">
            <path d="M527.943,301.276C527.943,301.276 509.999,532.446 491.943,663.943C483.387,726.251 377.12,1295.44 350.61,1371.943C322.6,1452.771 273.129,1543.269 211.943,1464.423C163.335,1401.785 72.029,1143.097 139.943,1069.756C174.594,1032.337 235.943,1035.09 258.61,1089.756C281.276,1144.423 182.655,884.731 246.61,875.09C319.889,864.042 329.39,941.756 360,936.423C390.61,931.09 367.943,520.423 329.276,524.423C290.61,528.423 502.61,1072.423 563.943,1069.756C623.946,1067.147 687.943,425.756 695.943,397.756" style="fill:none;stroke:black;stroke-width:35px;"/>
        </g>
    </g>
</svg>
