<?xml version="1.0" encoding="utf-8"?>
<!-- Generator: Adobe Illustrator 22.0.0, SVG Export Plug-In . SVG Version: 6.00 Build 0)  -->
<svg version="1.1" id="Capa_1" xmlns="http://www.w3.org/2000/svg" xmlns:xlink="http://www.w3.org/1999/xlink" x="0px" y="0px"
	 viewBox="0 0 3000 3000" style="enable-background:new 0 0 3000 3000;" xml:space="preserve">
<path d="M278,597c0-80.4,28.2-146.8,84.5-199.1c56.3-52.3,129.5-78.4,219.6-78.4c88.5,0,160.1,25.7,214.8,77.2
	c56.3,53.1,84.5,122.3,84.5,207.5c0,77.2-27.3,141.6-82,193.1c-56.3,53.1-130.3,79.6-222,79.6h-2.4c-88.5,0-160.1-26.5-214.8-79.6
	S278,677.4,278,597z M309.4,2708.5v-1612h535.7v1612H309.4z M1141.9,2708.5h535.7v-900.1c0-56.3,6.4-99.7,19.3-130.3
	c22.5-54.7,56.7-101,102.6-138.8c45.8-37.8,103.4-56.7,172.5-56.7c180.2,0,270.3,121.5,270.3,364.4v861.5H2778v-924.2
	c0-238.1-56.3-418.7-168.9-541.7c-112.6-123.1-261.4-184.6-446.4-184.6c-207.5,0-369.2,89.3-485,267.9v4.8h-2.4l2.4-4.8v-229.2
	h-535.7c3.2,51.5,4.8,211.5,4.8,480.2C1146.7,1845.4,1145.1,2222.7,1141.9,2708.5z"/>
<g>
	<path d="M2922,134v2760H134V134H2922 M2922,94H134c-22.1,0-40,17.9-40,40v2760c0,22.1,17.9,40,40,40h2788c22.1,0,40-17.9,40-40V134
		C2962,111.9,2944.1,94,2922,94L2922,94z"/>
</g>
</svg>
